<svg width="243" height="28" viewBox="0 0 243 28" fill="none" xmlns="http://www.w3.org/2000/svg">
<path d="M13.84 27H0.92V0.199999H13.84C22.44 0.199999 27.88 5.2 27.88 13.6C27.88 22 22.44 27 13.84 27ZM13.84 5.6H6.92V21.6H13.84C19.28 21.6 21.48 20.04 21.48 13.6C21.48 7.16 19.28 5.6 13.84 5.6ZM36.4828 27H30.4828V6.96H36.0428V12.28H36.4028C36.9628 9.04 39.0828 6.56 43.1228 6.56C47.6028 6.56 49.4428 9.64 49.4428 13.56V16.88H43.4428V14.8C43.4428 12.6 42.5628 11.64 40.1228 11.64C37.4428 11.64 36.4828 12.88 36.4828 15.4V27ZM59.8956 27.4C54.2556 27.4 51.5756 23.92 51.5756 19.44V6.96H57.5756V17.44C57.5756 20.68 58.9356 22.04 62.7356 22.04C66.6556 22.04 68.0556 20.52 68.0556 17.12V6.96H74.0556V27H68.4556V20.88H68.1356C67.6156 24.24 65.1756 27.4 59.8956 27.4ZM83.1234 27H77.1234V0.199999H83.1234V14.4H87.6834L92.8034 6.96H99.9234L92.6034 16.64L99.8034 27H92.7234L87.7234 19.76H83.1234V27ZM107.381 27H101.381V0.199999H107.381V27ZM116.682 27.4C112.362 27.4 109.762 25.4 109.762 22.04C109.762 19.08 111.962 17.24 116.242 16.8L124.842 15.92V15.16C124.842 12.56 123.682 11.84 120.482 11.84C117.442 11.84 116.202 12.64 116.202 14.92V15.08H110.162V14.96C110.162 10 114.322 6.56 120.922 6.56C127.602 6.56 130.762 10 130.762 15.24V27H125.162V22.4H124.842C123.922 25.52 121.122 27.4 116.682 27.4ZM115.802 21.64C115.802 22.72 116.642 23.16 118.402 23.16C122.482 23.16 124.682 22.2 124.842 19.36L117.882 20.16C116.442 20.28 115.802 20.68 115.802 21.64ZM139.803 27H133.803V6.96H139.363V13.12H139.723C140.243 9.76 142.643 6.56 147.883 6.56C153.363 6.56 155.963 10.08 155.963 14.52V27H149.963V16.52C149.963 13.32 148.643 11.96 144.963 11.96C141.163 11.96 139.803 13.48 139.803 16.88V27ZM167.958 27.4C161.718 27.4 158.278 23.32 158.278 17C158.278 10.6 161.678 6.56 167.638 6.56C172.398 6.56 174.838 8.92 175.518 12.28H175.878V0.199999H181.878V27H176.278V21.44H175.958C175.198 25.4 172.558 27.4 167.958 27.4ZM164.358 17C164.358 20.64 166.158 21.92 169.998 21.92C173.798 21.92 175.878 20.6 175.878 17.12V16.8C175.878 13.32 173.838 12.04 169.998 12.04C166.158 12.04 164.358 13.32 164.358 17ZM192.373 27H184.653V20H192.373V27ZM204.13 27.4C197.89 27.4 194.45 23.32 194.45 17C194.45 10.6 197.85 6.56 203.81 6.56C208.57 6.56 211.01 8.92 211.69 12.28H212.05V0.199999H218.05V27H212.45V21.44H212.13C211.37 25.4 208.73 27.4 204.13 27.4ZM200.53 17C200.53 20.64 202.33 21.92 206.17 21.92C209.97 21.92 212.05 20.6 212.05 17.12V16.8C212.05 13.32 210.01 12.04 206.17 12.04C202.33 12.04 200.53 13.32 200.53 17ZM231.865 27.4C225.185 27.4 220.625 24.12 220.625 17C220.625 10.6 225.145 6.56 231.745 6.56C238.305 6.56 242.665 10 242.665 16.28C242.665 17 242.585 17.52 242.505 18.2H226.185C226.345 21.28 227.785 22.6 231.665 22.6C235.225 22.6 236.465 21.68 236.465 19.96V19.56H242.465V20C242.465 24.36 238.225 27.4 231.865 27.4ZM231.625 11.24C228.065 11.24 226.545 12.44 226.265 15.04H236.905C236.745 12.4 235.145 11.24 231.625 11.24Z" fill="#0B0B0B"/>
</svg>
